<svg id="Layer_1" data-name="Layer 1" xmlns="http://www.w3.org/2000/svg" viewBox="0 0 143 110"  width="143"><defs><style>.cls-1{fill:#00325f;}.cls-2{fill:#fff;}.cls-3{fill:#16479e;}.cls-4{fill:#d22a2b;}</style></defs><rect class="cls-1" width="143" height="110"/><path class="cls-2" d="M71.52,7h0L47,13.44v2.89l-16,4,0,7-9.33,2-8.7-1.59h0l-2.81.68v3.4l-2.8.64v6.24H8.69v-5l1.41-.31v5.31h2.81V32.77L16.48,32v6.68h1.38v-7l2.84-.61v7.59h1.38V30.79l3.27-.7v8.59h1.37V29.79L31,28.88l0,9.8h1.76l0-12.75,3.6-.82,0,13.57h1.75l0-14,4-.92,0,14.88h1.75l0-15.28L45.55,23V38.68H47.3V22.61l1.51-.34V38.68h2.89V33.11l1.19-.25v5.82H55.2v-6l7.92-2.06v8.07h2.32V30.14l6.09-1.25,6.1,1.25v8.54H80V30.61l7.91,2.06v6h2.32V32.86l1.19.25v5.57h2.89V22.27l1.51.34V38.68h1.75V23l1.72.39,0,15.28H101l0-14.88,4.06.92,0,14h1.76l0-13.57,3.6.82,0,12.75h1.76l0-9.8,4.22.91v8.89h1.37V30.09l3.28.7v7.89h1.37V31.09l2.85.61v7h1.37V32l3.57.77v5.91H133V33.37l1.4.31v5h1.39V32.44L133,31.8V28.4l-2.82-.68h0l-8.69,1.59-9.34-2,0-7-16-4V13.44L71.54,7h0Zm0,4.37,2.74.68L71.8,13.32v9.74l11.35,3.2V18.63l3.53-1V27.94L71.54,24.11h0L56.38,27.94V17.61l3.53,1v7.63l11.35-3.2V13.32L68.8,12.05ZM67,12.51l2.21,2.29-3.27,1v0l-3.62-2.07Zm9.15,0,4.67,1.16-3.63,2.07v0l-3.27-1ZM60.67,14.07l2.72,2.48-2.87.87-4.09-2.29Zm21.72,0,4.24,1.06-4.09,2.29-2.87-.87ZM54.78,15.54v1.8l-3.22.73-1.08-1.46Zm33.5,0,4.3,1.07L91.5,18.07l-3.22-.73ZM48.88,17v1.67l-4.15.94-.92-1.34Zm45.3,0,5.07,1.27-.92,1.34-4.15-.94V17Zm-52.11,1.7v1.52l-3.14.71L38,19.72Zm58.93,0,4,1-.91,1.22L101,20.23c0-.51,0-1,0-1.52ZM36.27,20.16v1.38l-2.74.62-.83-1.11Zm70.52,0,3.57.89-.83,1.11-2.74-.62V20.16ZM71.53,25.87,87.86,30v.71L71.54,27h0L55.2,30.7V30ZM7.3,41.38v.17H135.76v-.17Z"/><path class="cls-3" d="M7.23,44.07H135.69V41.41H7.23Z"/><path class="cls-2" d="M7.23,41.39H135.69V38.72H7.23Z"/><path class="cls-4" d="M7.23,46.75H135.69V44.08H7.23Z"/><path class="cls-2" d="M72.51,64,58.73,82V64H55.44V87.3H58.5L72.31,69.36V87.3h3.26V64ZM37.78,64V87.3h3.3l0-20.4h8.89L50,64ZM28.7,64,19.12,80.38,9.4,64H6.67V87.3H9.86V70.42l8.42,14h1.53l8.43-14.15,0,17h3.2l0-23.3Z"/><path class="cls-2" d="M106.48,87.3l0-23.3h-2.73L94.13,80.38,84.41,64H81.68V87.3h3.19V70.43l8.43,14h1.53l8.42-14.15,0,17Z"/><path class="cls-2" d="M136,75.64c0-6.85-5.26-11.9-12.34-11.9s-12.4,5.08-12.4,11.9,5.26,11.9,12.4,11.9S136,82.49,136,75.64m-12.34,8.94a8.95,8.95,0,1,1,9-8.94,8.75,8.75,0,0,1-9,8.94"/><path class="cls-2" d="M10.72,102.34a3.71,3.71,0,0,1-1.85-.46,3.33,3.33,0,0,1-1.29-1.29,3.94,3.94,0,0,1,0-3.77,3.35,3.35,0,0,1,1.29-1.27,3.65,3.65,0,0,1,1.85-.46,3.74,3.74,0,0,1,1.88.46,3.26,3.26,0,0,1,1.28,1.27,3.94,3.94,0,0,1,0,3.77,3.24,3.24,0,0,1-1.28,1.29A3.79,3.79,0,0,1,10.72,102.34Zm0-.85a2.65,2.65,0,0,0,1.37-.34,2.53,2.53,0,0,0,.94-1,3.24,3.24,0,0,0,0-2.93,2.48,2.48,0,0,0-.94-1,2.64,2.64,0,0,0-1.35-.35,2.67,2.67,0,0,0-1.36.35,2.57,2.57,0,0,0-1,1,3.24,3.24,0,0,0,0,2.93,2.52,2.52,0,0,0,2.29,1.32Z"/><path class="cls-2" d="M29.6,101.81V96H26.17l-.08,1.58c0,.48-.05,1-.1,1.41a7,7,0,0,1-.2,1.28,2.49,2.49,0,0,1-.4.93,1,1,0,0,1-.66.41l-1-.18a.85.85,0,0,0,.69-.29,2.38,2.38,0,0,0,.42-.89A8.2,8.2,0,0,0,25.1,99c0-.48.08-1,.1-1.46l.1-2.38h5.26v6.66ZM23.47,104v-2.57h8.2V104h-.9v-1.73H24.38V104Z"/><path class="cls-2" d="M42.41,102.28V95.16h1v5.65l4.76-5.65H49v7.12H48V96.61l-4.75,5.67Z"/><path class="cls-2" d="M59.89,102.28V95.16h1V98.3h4.49V95.16h1v7.12h-1V99.13H60.85v3.15Z"/><path class="cls-2" d="M76.18,102.28V95.16h1v6.28H81.5V95.16h1v7.12ZM82.71,104v-1.8l.24.08H81.5v-.84h2.12V104Z"/><path class="cls-2" d="M97.29,102.34a3.71,3.71,0,0,1-1.85-.46,3.33,3.33,0,0,1-1.29-1.29,3.94,3.94,0,0,1,0-3.77,3.35,3.35,0,0,1,1.29-1.27,3.65,3.65,0,0,1,1.85-.46,3.74,3.74,0,0,1,1.88.46,3.26,3.26,0,0,1,1.28,1.27,3.94,3.94,0,0,1,0,3.77,3.24,3.24,0,0,1-1.28,1.29A3.79,3.79,0,0,1,97.29,102.34Zm0-.85a2.65,2.65,0,0,0,1.37-.34,2.53,2.53,0,0,0,.94-1,3.24,3.24,0,0,0,0-2.93,2.48,2.48,0,0,0-.94-1,2.64,2.64,0,0,0-1.35-.35,2.67,2.67,0,0,0-1.36.35,2.57,2.57,0,0,0-1,1,3.24,3.24,0,0,0,0,2.93,2.52,2.52,0,0,0,2.29,1.32Z"/><path class="cls-2" d="M112.25,102.28V95.16h3.15a3.4,3.4,0,0,1,1.9.46A1.51,1.51,0,0,1,118,97a1.57,1.57,0,0,1-.66,1.35,3.09,3.09,0,0,1-1.75.46l.19-.29a3,3,0,0,1,1.87.48,1.62,1.62,0,0,1,.59,1.37,1.72,1.72,0,0,1-.67,1.44,3.52,3.52,0,0,1-2.08.5Zm.94-.76h2.26a2.64,2.64,0,0,0,1.37-.29,1,1,0,0,0,.48-1,1.07,1.07,0,0,0-.43-1,2.39,2.39,0,0,0-1.32-.29h-2.36Zm0-3.2h2.14a2.21,2.21,0,0,0,1.26-.31,1.05,1.05,0,0,0,.45-.91,1,1,0,0,0-.45-.9,2.21,2.21,0,0,0-1.26-.3h-2.14Z"/><path class="cls-2" d="M131.93,102.34a3.72,3.72,0,0,1-1.86-.46,3.47,3.47,0,0,1-1.29-1.29,4,4,0,0,1,0-3.77,3.49,3.49,0,0,1,1.29-1.27,3.67,3.67,0,0,1,1.86-.46,3.7,3.7,0,0,1,1.87.46,3.35,3.35,0,0,1,1.29,1.27,4,4,0,0,1,0,3.77,3.33,3.33,0,0,1-1.29,1.29A3.76,3.76,0,0,1,131.93,102.34Zm0-.85a2.7,2.7,0,0,0,1.37-.34,2.51,2.51,0,0,0,.93-1,3.24,3.24,0,0,0,0-2.93,2.45,2.45,0,0,0-.93-1,2.67,2.67,0,0,0-3.67,1,3.24,3.24,0,0,0,0,2.93,2.71,2.71,0,0,0,1,1,2.66,2.66,0,0,0,1.35.34Z"/></svg>